<?xml version="1.0" encoding="UTF-8"?>
<svg width="32px" height="32px" viewBox="0 0 32 32" version="1.1" xmlns="http://www.w3.org/2000/svg" xmlns:xlink="http://www.w3.org/1999/xlink">
    <!-- Generator: Sketch 55.2 (78181) - https://sketchapp.com -->
    <title>App / Icon / home</title>
    <desc>Created with Sketch.</desc>
    <g id="App-/-Icon-/-home" stroke="none" stroke-width="1" fill="none" fill-rule="evenodd">
        <rect id="Rectangle" x="0" y="0" width="32" height="32"></rect>
        <path d="M22.5750086,17.9274122 C22.3403425,17.9274122 22.1500172,18.122602 22.1500172,18.363266 L22.1500172,26.128365 L17.5895764,26.128365 L17.5895764,21.2539212 C17.5895764,21.0132572 17.3992511,20.8180674 17.164585,20.8180674 L13.8354858,20.8180674 C13.6008198,20.8180674 13.4104945,21.0132572 13.4104945,21.2539212 L13.4104945,25.1190002 C13.4104945,25.3596642 13.6008198,25.554854 13.8354858,25.554854 C14.0701519,25.554854 14.2604772,25.3596642 14.2604772,25.1190002 L14.2604772,21.689775 L16.7395936,21.689775 L16.7395936,26.128365 L8.84998276,26.128365 L8.84998276,15.4600437 L15.4999646,9.99450945 L22.3091765,15.5908725 C22.4923478,15.74146 22.759809,15.7110955 22.9065727,15.5233152 C23.0533364,15.3354622 23.0238703,15.0612375 22.8406991,14.91065 L15.7657259,9.09577888 C15.6104623,8.96807371 15.3894668,8.96807371 15.2342033,9.09577888 L8.1592301,14.91065 C8.05857798,14.9933896 8,15.118407 8,15.2507612 L8,26.5641462 C8,26.8048101 8.19025448,27 8.42499138,27 L22.5750086,27 C22.8097455,27 23,26.8048101 23,26.5641462 L23,18.363266 C23,18.1225294 22.8097455,17.9274122 22.5750086,17.9274122 Z" id="Path" fill="#FFFFFF" fill-rule="nonzero"></path>
    </g>
</svg>